<svg xmlns="http://www.w3.org/2000/svg" viewBox="0 0 565.78 111.99"><defs><style>.cls-1{fill:#d72432;}.cls-2{fill:#023d59;}</style></defs><g id="Capa_2" data-name="Capa 2"><g id="Diseño"><rect class="cls-1" y="4.79" width="17.58" height="107.05"/><path class="cls-1" d="M69.22,112A41.59,41.59,0,0,1,27.68,70.45V4.53H44.79V70.45a24.43,24.43,0,0,0,48.86,0V4.8h17.12V70.45A41.6,41.6,0,0,1,69.22,112"/><path class="cls-2" d="M137.27,4.8H121.2v52h14.54q13.44,0,20.59-6.81t7.15-19.68q0-12.14-6.9-18.82T137.27,4.8m-1.53,44.84h-6V11.91h7.36q17.44,0,17.46,18.67,0,19.06-18.78,19.06"/><rect class="cls-2" x="173.75" y="17.46" width="8.35" height="39.33"/><path class="cls-2" d="M178,2.38a4.81,4.81,0,0,0-3.5,1.21A4.63,4.63,0,0,0,173.26,7a4.53,4.53,0,0,0,1.22,3.36,4.74,4.74,0,0,0,3.5,1.22,4.65,4.65,0,0,0,3.44-1.22A4.57,4.57,0,0,0,182.64,7a4.67,4.67,0,0,0-1.22-3.45A4.73,4.73,0,0,0,178,2.38"/><path class="cls-2" d="M210.89,17a26.8,26.8,0,0,0-3.5-.23q-7.45,0-11.5,3.52t-4,9.92a12.6,12.6,0,0,0,1.9,7,11,11,0,0,0,5,4.29,14.17,14.17,0,0,0-3.7,3,5.9,5.9,0,0,0-.16,7,6.23,6.23,0,0,0,2.75,2.3,12.28,12.28,0,0,0-6.42,3.43,8.67,8.67,0,0,0-2.29,6.1,9.2,9.2,0,0,0,4.23,8.11q4.23,2.84,12.27,2.84,10.41,0,15.93-3.63a11.6,11.6,0,0,0,5.51-10.31c0-3.48-1.12-6.15-3.38-8s-5.54-2.77-9.88-2.77h-6.86a11,11,0,0,1-4.65-.68,2.17,2.17,0,0,1-1.25-2c0-1.5.89-2.8,2.69-3.92a18.73,18.73,0,0,0,3.42.29q7.37,0,11.55-3.48a11.78,11.78,0,0,0,4.2-9.57,12.16,12.16,0,0,0-.6-3.84,10.94,10.94,0,0,0-1.53-3.06l6.72-1.24V17.46H213.65a20.54,20.54,0,0,0-2.76-.48m-6.7,39.67h6.33c3.32,0,5.59.35,6.81,1.08a3.89,3.89,0,0,1,1.83,3.64q0,3.24-3.34,5.2t-10.17,2a13.55,13.55,0,0,1-6.85-1.45,4.62,4.62,0,0,1-2.43-4.17,5.55,5.55,0,0,1,2.12-4.57,8.89,8.89,0,0,1,5.7-1.68m3.13-18.78a7.19,7.19,0,0,1-5.46-2,7.92,7.92,0,0,1-1.9-5.69c0-2.63.62-4.64,1.87-6a7,7,0,0,1,5.49-2.06,6.82,6.82,0,0,1,5.46,2.08,8.76,8.76,0,0,1,1.79,5.92q0,7.75-7.25,7.75"/><path class="cls-2" d="M238.79,2.38a4.8,4.8,0,0,0-3.5,1.21A4.63,4.63,0,0,0,234.06,7a4.54,4.54,0,0,0,1.23,3.36,4.72,4.72,0,0,0,3.5,1.22,4.63,4.63,0,0,0,3.43-1.22A4.54,4.54,0,0,0,243.45,7a4.63,4.63,0,0,0-1.23-3.45,4.7,4.7,0,0,0-3.43-1.21"/><rect class="cls-2" x="234.56" y="17.46" width="8.36" height="39.33"/><path class="cls-2" d="M265.55,49.3A5.88,5.88,0,0,1,264,44.84V23.79h11.2V17.46H264V8.71h-5.16L256,17l-5.76,3.06v3.7h5.36V45q0,12.52,11.88,12.52a24.89,24.89,0,0,0,4.54-.41,17.11,17.11,0,0,0,3.57-1v-6.3a20.35,20.35,0,0,1-6.12,1,5.51,5.51,0,0,1-4-1.44"/><path class="cls-2" d="M310.25,20q-3.83-3.27-11.33-3.27a32.22,32.22,0,0,0-7.18.87,29.31,29.31,0,0,0-7,2.54l2.71,6a45.42,45.42,0,0,1,5.33-2.1,18.94,18.94,0,0,1,5.79-.88q3.7,0,5.46,1.86c1.18,1.25,1.76,3.13,1.76,5.64v2.1L299,33q-9.24.28-13.76,3.38t-4.52,9.17q0,5.73,3.26,8.86t9,3.13a18,18,0,0,0,7.39-1.3,16,16,0,0,0,5.73-4.89h.29l1.66,5.48h6V30.29q0-7-3.82-10.27m-4.54,21.4A9.27,9.27,0,0,1,303,48.56a10.39,10.39,0,0,1-7.31,2.54A6.72,6.72,0,0,1,291,49.66a5.24,5.24,0,0,1-1.57-4.07,6,6,0,0,1,2.69-5.39c1.78-1.17,4.65-1.83,8.58-2l5-.21Z"/><rect class="cls-2" x="325.73" y="4.8" width="8.36" height="51.99"/><path d="M136.52,80.46c0,1.53,0,3.09.11,4.67h-.11a7.67,7.67,0,0,0-2.92-2.78,8.55,8.55,0,0,0-3.86-.81,7.77,7.77,0,0,0-6.49,2.82Q121,87.18,121,92.52q0,5.07,2.25,7.73a8.08,8.08,0,0,0,6.52,2.65,7.62,7.62,0,0,0,6.74-3.52h.15l.48,3.14h1.23V73.06h-1.86Zm0,12.06q0,4.67-1.63,6.69c-1.08,1.35-2.79,2-5.11,2q-6.8,0-6.8-8.74,0-4.51,1.69-6.88a5.82,5.82,0,0,1,5.07-2.36c2.38,0,4.11.69,5.18,2.09s1.6,3.68,1.6,6.86Z"/><path d="M153.05,81.54a8,8,0,0,0-6.53,3,12.07,12.07,0,0,0-2.43,7.89q0,5,2.51,7.74a9,9,0,0,0,7,2.77,17.3,17.3,0,0,0,3.26-.28,14.92,14.92,0,0,0,3.21-1V99.89A18.56,18.56,0,0,1,156.7,101a17.68,17.68,0,0,1-3.1.25A7,7,0,0,1,148,99q-1.93-2.23-2-6.47h14.82V91a10.48,10.48,0,0,0-2.1-6.89,7,7,0,0,0-5.74-2.54m-6.87,9.28a9.18,9.18,0,0,1,2.1-5.65,6.16,6.16,0,0,1,4.77-2,5.14,5.14,0,0,1,4.3,2,9,9,0,0,1,1.55,5.6Z"/><path d="M184.33,74.72l-11.13,27.8h2.14l3.86-9.77h11.25l3.85,9.77h2.17l-10.91-27.8ZM189.81,91H179.9l3.89-9.94a31.79,31.79,0,0,0,1.11-3.3c.44,1.39.82,2.48,1.14,3.26Z"/><path d="M209.12,81.54q-5.13,0-7.14,3.22h-.11l-.36-2.82h-1.59v20.58h1.87V91.16q0-4.18,1.71-6t5.41-1.86A5.27,5.27,0,0,1,213,84.66c.88.94,1.31,2.44,1.31,4.51v13.35h1.86V89.05q0-7.5-7-7.51"/><path d="M225.62,100.1a5.92,5.92,0,0,1-.84-3.5v-13h6V81.94h-6V77h-1l-.94,4.66-3.05.84v1.1h3.05v13.3a6.74,6.74,0,0,0,1.3,4.58,5.11,5.11,0,0,0,4,1.46,9.7,9.7,0,0,0,3.14-.46v-1.51a14.1,14.1,0,0,1-3.1.3,3,3,0,0,1-2.61-1.13"/><path d="M236.71,74.4c-.8,0-1.19.61-1.19,1.82s.39,1.83,1.19,1.83a1,1,0,0,0,.92-.49,2.37,2.37,0,0,0,.33-1.34,2.34,2.34,0,0,0-.33-1.35,1.07,1.07,0,0,0-.92-.47"/><rect x="235.78" y="81.94" width="1.88" height="20.58"/><path d="M251.44,81.54a8.43,8.43,0,0,0-6.71,2.81q-2.44,2.81-2.44,7.85a13.45,13.45,0,0,0,1.1,5.64,8.38,8.38,0,0,0,3.16,3.76,8.84,8.84,0,0,0,4.77,1.3,8.42,8.42,0,0,0,6.74-2.83q2.44-2.83,2.44-7.87t-2.41-7.81a8.26,8.26,0,0,0-6.65-2.85m5.23,17.28a7,7,0,0,1-10.55,0,10.51,10.51,0,0,1-1.86-6.62,10.47,10.47,0,0,1,1.84-6.62,6.32,6.32,0,0,1,5.26-2.33,6.4,6.4,0,0,1,5.29,2.34,10.3,10.3,0,0,1,1.89,6.61,10.51,10.51,0,0,1-1.87,6.62"/><path d="M280.44,84.83h-.11a7.52,7.52,0,0,0-6.68-3.29,7.65,7.65,0,0,0-6.4,2.85C265.76,86.29,265,89,265,92.45s.75,6,2.24,7.76a7.72,7.72,0,0,0,6.28,2.69,7.63,7.63,0,0,0,7-3.6h.11c-.07,1.59-.11,3.15-.11,4.7v7.84h1.85V81.94h-1.59Zm.08,7.41q0,4.86-1.6,6.93c-1.07,1.38-2.85,2.06-5.35,2.06a5.81,5.81,0,0,1-4.9-2.2c-1.12-1.47-1.69-3.65-1.69-6.54s.58-5.33,1.73-6.9a5.93,5.93,0,0,1,5.07-2.34c2.35,0,4.06.68,5.13,2.06s1.61,3.61,1.61,6.7Z"/><path d="M303.41,93.3c0,2.79-.57,4.8-1.73,6s-3,1.86-5.4,1.86a5.28,5.28,0,0,1-4.06-1.42c-.87-.93-1.3-2.44-1.3-4.51V81.94h-1.86V95.38q0,7.52,7,7.52c3.42,0,5.8-1.08,7.14-3.22h.11l.34,2.84h1.59V81.94h-1.86Z"/><path d="M313.09,74.4c-.79,0-1.19.61-1.19,1.82s.4,1.83,1.19,1.83a1,1,0,0,0,.92-.49,2.37,2.37,0,0,0,.33-1.34,2.34,2.34,0,0,0-.33-1.35,1.07,1.07,0,0,0-.92-.47"/><rect x="312.16" y="81.94" width="1.88" height="20.58"/><path d="M332.06,83.34A6.68,6.68,0,0,0,327,81.57a15.69,15.69,0,0,0-6.7,1.6l.7,1.63a12.84,12.84,0,0,1,5.92-1.59,4.63,4.63,0,0,1,3.85,1.49A7,7,0,0,1,332,89.13V90.5l-3.92.11q-4.76.09-7.26,1.76a5.31,5.31,0,0,0-2.51,4.68,5.55,5.55,0,0,0,1.69,4.3,6.7,6.7,0,0,0,4.71,1.55,8.49,8.49,0,0,0,3.87-.83,9.58,9.58,0,0,0,3.19-2.81h.16l.47,3.26h1.38V88.83q0-3.73-1.68-5.49m-.17,10.74a6.57,6.57,0,0,1-7.11,7.12,4.84,4.84,0,0,1-3.34-1.07,3.86,3.86,0,0,1-1.18-3,3.91,3.91,0,0,1,1.84-3.57c1.24-.76,3.29-1.21,6.19-1.35l3.6-.15Z"/><path d="M371.08,4.9h3.39V20.64h-3.39Z"/><path d="M379.12,4.9h3.37l7.58,10.18V4.9h3.39V20.64h-3.39l-7.58-10.17V20.64h-3.37Z"/><path d="M397.06,18.31,399,16a7.8,7.8,0,0,0,5.18,2.06c1.69,0,2.57-.78,2.57-1.76s-.92-1.47-3.33-2c-3.32-.75-5.68-1.69-5.68-4.74s2.38-4.9,5.82-4.9a9.09,9.09,0,0,1,6.16,2.17L408,9.23a7.32,7.32,0,0,0-4.49-1.74c-1.44,0-2.31.76-2.31,1.7,0,1.14.93,1.51,3.36,2.06,3.39.76,5.64,1.76,5.64,4.67s-2.27,5-6.12,5A10.16,10.16,0,0,1,397.06,18.31Z"/><path d="M418.05,8h-4.9v-3h13.2V8h-4.91V20.64h-3.39Z"/><path d="M430,4.9h3.39V20.64H430Z"/><path d="M442,8h-4.9v-3h13.19V8h-4.9V20.64H442Z"/><path d="M453.94,13.84V4.9h3.36v8.8c0,2.43,1.56,4.15,3.76,4.15s3.74-1.72,3.74-4.15V4.9h3.39v8.94a7.13,7.13,0,0,1-14.25,0Z"/><path d="M472,12.76a8.36,8.36,0,0,1,8.36-8.13,8.47,8.47,0,0,1,6.12,2.63L484,9.46a4.9,4.9,0,0,0-3.66-1.76,5.08,5.08,0,0,0,0,10.15A4.87,4.87,0,0,0,484,16.08l2.46,2.2a8.51,8.51,0,0,1-6.12,2.64A8.39,8.39,0,0,1,472,12.76Z"/><path d="M490,4.9h3.4V20.64H490Z"/><path d="M497.29,12.76a8.37,8.37,0,0,1,16.73,0,8.37,8.37,0,0,1-16.73,0Zm13.27,0a4.9,4.9,0,1,0-4.91,5.09A5.06,5.06,0,0,0,510.56,12.76ZM507.12,0l3,.55-3.39,3h-2.27Z"/><path d="M518,4.9h3.37L529,15.08V4.9h3.39V20.64H529L521.4,10.47V20.64H518Z"/><path d="M371,41.34V32.4h3.37v8.8c0,2.43,1.56,4.14,3.76,4.14s3.73-1.71,3.73-4.14V32.4h3.39v8.94a7.13,7.13,0,0,1-14.25,0Z"/><path d="M389.85,32.4h3.36l7.59,10.17V32.4h3.39V48.14H400.8L393.21,38V48.14h-3.36Z"/><path d="M408.86,32.4h3.4V48.14h-3.4Z"/><path d="M432.12,32.4l-6.41,15.74h-3.78L415.51,32.4h3.8l4.52,11.09,4.51-11.09Z"/><path d="M438.74,35.45v3.14h7.91v3h-7.91v3.46h8.73v3H435.35V32.4h12.12v3.05Z"/><path d="M460.88,48.14,457.28,43h-2.5v5.11h-3.36V32.4h7.08c3.41,0,5.93,2.2,5.93,5.32a5.13,5.13,0,0,1-3.57,4.92l3.87,5.5Zm-6.1-8.2h3.35c1.67,0,2.82-.87,2.82-2.22s-1.15-2.23-2.82-2.23h-3.35Z"/><path d="M467.3,45.8l1.94-2.31a7.8,7.8,0,0,0,5.18,2.06c1.7,0,2.57-.78,2.57-1.76s-.92-1.47-3.32-2C470.34,41,468,40.07,468,37s2.39-4.9,5.82-4.9A9.13,9.13,0,0,1,480,34.3l-1.77,2.43A7.32,7.32,0,0,0,473.71,35c-1.44,0-2.31.75-2.31,1.69,0,1.15.94,1.52,3.37,2.07,3.39.75,5.63,1.76,5.63,4.67s-2.27,5-6.12,5A10.07,10.07,0,0,1,467.3,45.8Z"/><path d="M484.25,32.4h3.39V48.14h-3.39Z"/><path d="M496.24,35.45h-4.91V32.4h13.2v3.05h-4.9V48.14h-3.39Z"/><path d="M517.52,45.66h-7l-1,2.48h-3.78l6.42-15.74h3.78l6.41,15.74h-3.8Zm-1.16-2.86L514,37.05l-2.34,5.75Z"/><path d="M535,48.14,531.43,43h-2.5v5.11h-3.36V32.4h7.08c3.41,0,5.93,2.2,5.93,5.32A5.13,5.13,0,0,1,535,42.64l3.87,5.5Zm-6.1-8.2h3.35c1.67,0,2.82-.87,2.82-2.22s-1.15-2.23-2.82-2.23h-3.35Z"/><path d="M542.52,32.4h3.4V48.14h-3.4Z"/><path d="M561,45.66h-7l-1,2.48h-3.78l6.41-15.74h3.78l6.42,15.74H562ZM559.8,42.8l-2.34-5.75-2.33,5.75Z"/><path d="M371.17,59.9h5.64c5.29,0,9.05,3.25,9.05,7.86s-3.76,7.88-9.05,7.88h-5.64Zm6.07,12.67a4.79,4.79,0,0,0,5.13-4.81c0-2.8-2.13-4.79-5.13-4.79h-2.7v9.6Z"/><path d="M389.89,59.9h3.39V75.64h-3.39Z"/><path d="M405,66.79h7v6.49a9,9,0,0,1-6.37,2.63,8.15,8.15,0,1,1,0-16.29A9,9,0,0,1,412,62.26l-2.45,2.2a5.4,5.4,0,0,0-3.92-1.77,5.08,5.08,0,0,0,0,10.15,5.27,5.27,0,0,0,3.07-1v-2.4H405Z"/><path d="M416.24,59.9h3.39V75.64h-3.39Z"/><path d="M428.23,62.94h-4.91v-3h13.2v3h-4.9v12.7h-3.39Z"/><path d="M449.51,73.16h-7l-1,2.48h-3.78l6.42-15.74h3.78l6.41,15.74h-3.8Zm-1.16-2.86L446,64.55l-2.34,5.75Z"/><path d="M468.67,72.59v3H457.44V59.9h3.39V72.59Z"/><path d="M371.17,87.4h5.64c5.29,0,9.05,3.25,9.05,7.85s-3.76,7.88-9.05,7.88h-5.64Zm6.07,12.66a4.78,4.78,0,0,0,5.13-4.81c0-2.79-2.13-4.79-5.13-4.79h-2.7v9.6Z"/><path d="M393.24,90.44v3.14h7.9v3h-7.9v3.46H402v3H389.85V87.4H402v3Z"/><path d="M424.21,100.66h-7l-1,2.47h-3.78l6.41-15.73h3.78L429,103.13h-3.81Zm-1.16-2.86-2.34-5.75-2.34,5.75Z"/><path d="M432.4,87.4h3.36l7.59,10.17V87.4h3.39v15.73h-3.39L435.76,93v10.17H432.4Z"/><path d="M455.45,90.44h-4.91v-3h13.2v3h-4.9v12.69h-3.39Z"/><path d="M467.43,87.4h3.39v15.73h-3.39Z"/><path d="M474.72,95.25a8.36,8.36,0,1,1,8.36,8.16A8.36,8.36,0,0,1,474.72,95.25Zm13.26,0a4.89,4.89,0,1,0-4.9,5.09A5.06,5.06,0,0,0,488,95.25Z"/><path d="M509.93,99.86l1.47,1.28-1.72,2-1.6-1.39a8.08,8.08,0,1,1,3.34-6.49A8,8,0,0,1,509.93,99.86Zm-4.35-.28L503.75,98l1.72-2,1.9,1.64a4.92,4.92,0,0,0,.6-2.38,4.9,4.9,0,1,0-4.91,5.09A4.59,4.59,0,0,0,505.58,99.58Z"/><path d="M515.28,96.33V87.4h3.36v8.79c0,2.43,1.56,4.15,3.76,4.15s3.74-1.72,3.74-4.15V87.4h3.39v8.93a7.13,7.13,0,0,1-14.25,0Z"/><path d="M534,87.4h3.39v15.73H534Z"/><path d="M552.46,100.66h-7l-1,2.47h-3.78l6.41-15.73h3.78l6.42,15.73h-3.81ZM551.3,97.8,549,92.05l-2.34,5.75Z"/></g></g>
</svg>
