<?xml version="1.0" encoding="UTF-8" standalone="no"?>
<!DOCTYPE svg PUBLIC "-//W3C//DTD SVG 1.1//EN" "http://www.w3.org/Graphics/SVG/1.1/DTD/svg11.dtd">
<svg width="100%" height="100%" viewBox="0 0 720 130" version="1.1" xmlns="http://www.w3.org/2000/svg" xmlns:xlink="http://www.w3.org/1999/xlink" xml:space="preserve" xmlns:serif="http://www.serif.com/" style="fill-rule:evenodd;clip-rule:evenodd;stroke-linejoin:round;stroke-miterlimit:2;">
    <g transform="matrix(0.985738,0,0,1,10.0769,4.88498e-14)">
        <path d="M706.566,18.685C706.566,11.463 700.619,5.601 693.293,5.601L148.838,5.601C141.512,5.601 135.565,11.463 135.565,18.685L135.565,107.004C135.565,114.225 141.512,120.088 148.838,120.088L693.293,120.088C700.619,120.088 706.566,114.225 706.566,107.004L706.566,18.685Z" style="fill:rgb(228,228,228);"/>
    </g>
    <g id="Burger">
        <path d="M110.1,40.3L15,40.3C12.1,40.3 9.7,37.9 9.7,35L9.7,32.8C9.7,29.9 12.1,27.5 15,27.5L110.1,27.5C113,27.5 115.4,29.9 115.4,32.8L115.4,35C115.4,37.9 113,40.3 110.1,40.3Z" style="fill-rule:nonzero;"/>
        <path d="M110.1,74.3L15,74.3C12.1,74.3 9.7,71.9 9.7,69L9.7,66.8C9.7,63.9 12.1,61.5 15,61.5L110.1,61.5C113,61.5 115.4,63.9 115.4,66.8L115.4,69C115.4,71.9 113,74.3 110.1,74.3Z" style="fill-rule:nonzero;"/>
        <path d="M109.8,108.1L14.8,108.1C11.9,108.1 9.5,105.7 9.5,102.8L9.5,100.6C9.5,97.7 11.9,95.3 14.8,95.3L109.9,95.3C112.8,95.3 115.2,97.7 115.2,100.6L115.2,102.8C115.2,105.7 112.8,108.1 109.8,108.1Z" style="fill-rule:nonzero;"/>
    </g>
    <g id="Diseño" transform="matrix(0.623461,0,0,0.623461,152.89,8.13872)">
        <rect x="144.3" y="13.8" width="17.6" height="107.1" style="fill:rgb(215,36,50);"/>
        <path d="M213.5,121C190.6,121 172,102.4 172,79.4L172,13.5L189.1,13.5L189.1,79.4C189.1,92.9 200,103.8 213.5,103.8C227,103.8 237.9,92.9 237.9,79.4L237.9,13.8L255,13.8L255,79.5C255,102.4 236.4,121 213.5,121" style="fill:rgb(215,36,50);fill-rule:nonzero;"/>
        <path d="M281.5,13.8L265.5,13.8L265.5,65.8L280,65.8C289,65.8 295.8,63.5 300.6,59C305.4,54.5 307.7,47.9 307.7,39.3C307.7,31.2 305.4,24.9 300.8,20.5C296.2,16 289.8,13.8 281.5,13.8M280,58.6L274,58.6L274,20.9L281.4,20.9C293,20.9 298.8,27.1 298.9,39.6C298.8,52.3 292.6,58.6 280,58.6" style="fill:rgb(2,61,89);fill-rule:nonzero;"/>
        <rect x="318" y="26.5" width="8.4" height="39.3" style="fill:rgb(2,61,89);"/>
        <path d="M322.3,11.4C321,11.3 319.8,11.8 318.8,12.6C317.9,13.5 317.5,14.8 317.6,16C317.5,17.2 318,18.5 318.8,19.4C319.8,20.3 321,20.7 322.3,20.6C323.6,20.7 324.8,20.2 325.7,19.4C326.5,18.5 327,17.3 326.9,16C327,14.7 326.5,13.5 325.7,12.5C324.7,11.7 323.5,11.3 322.3,11.4" style="fill:rgb(2,61,89);fill-rule:nonzero;"/>
        <path d="M355.1,26C353.9,25.8 352.8,25.8 351.6,25.8C346.6,25.8 342.8,27 340.1,29.3C337.4,31.6 336.1,35 336.1,39.2C336,41.7 336.7,44.1 338,46.2C339.2,48.1 340.9,49.6 343,50.5C341.6,51.3 340.4,52.3 339.3,53.5C337.7,55.5 337.7,58.4 339.1,60.5C339.8,61.5 340.7,62.3 341.9,62.8C339.5,63.3 337.2,64.5 335.5,66.2C334,67.9 333.2,70 333.2,72.3C333.1,75.6 334.7,78.6 337.4,80.4C340.2,82.3 344.3,83.2 349.7,83.2C356.6,83.2 362,82 365.6,79.6C369.2,77.4 371.3,73.5 371.1,69.3C371.1,65.8 370,63.1 367.7,61.3C365.4,59.5 362.2,58.5 357.8,58.5L350.9,58.5C349.3,58.6 347.7,58.4 346.3,57.8C345.5,57.4 345,56.7 345.1,55.8C345.1,54.3 346,53 347.8,51.9C348.9,52.1 350.1,52.2 351.2,52.2C356.1,52.2 360,51 362.7,48.7C365.5,46.3 367.1,42.8 366.9,39.1C366.9,37.8 366.7,36.5 366.3,35.3C366,34.2 365.4,33.2 364.8,32.2L371.5,31L371.5,26.4L357.8,26.4C357,26.2 356.1,26.1 355.1,26M348.4,65.7L354.7,65.7C358,65.7 360.3,66 361.5,66.8C362.7,67.6 363.5,69 363.3,70.4C363.3,72.6 362.2,74.3 360,75.6C357.8,76.9 354.4,77.6 349.8,77.6C347.4,77.7 345.1,77.2 342.9,76.2C341.4,75.4 340.4,73.8 340.5,72C340.4,70.2 341.2,68.5 342.6,67.4C344.4,66.2 346.4,65.6 348.4,65.7M351.6,46.9C349.6,47 347.6,46.3 346.1,44.9C344.7,43.3 344.1,41.3 344.2,39.2C344.2,36.6 344.8,34.6 346.1,33.2C347.5,31.7 349.5,31 351.6,31.1C353.6,30.9 355.6,31.7 357.1,33.2C358.4,34.9 359,37 358.9,39.1C358.8,44.3 356.4,46.9 351.6,46.9" style="fill:rgb(2,61,89);fill-rule:nonzero;"/>
        <path d="M383,11.4C381.7,11.3 380.5,11.8 379.5,12.6C378.6,13.5 378.2,14.8 378.3,16C378.2,17.2 378.7,18.5 379.5,19.4C380.5,20.3 381.7,20.7 383,20.6C384.3,20.7 385.5,20.2 386.4,19.4C387.3,18.5 387.7,17.3 387.6,16C387.7,14.7 387.2,13.5 386.4,12.5C385.5,11.7 384.3,11.3 383,11.4" style="fill:rgb(2,61,89);fill-rule:nonzero;"/>
        <rect x="378.8" y="26.5" width="8.4" height="39.3" style="fill:rgb(2,61,89);"/>
        <path d="M409.8,58.3C408.7,57.1 408.1,55.5 408.3,53.8L408.3,32.8L419.5,32.8L419.5,26.5L408.3,26.5L408.3,17.8L403.1,17.8L400.3,26.1L394.5,29.2L394.5,32.9L399.9,32.9L399.9,54C399.9,62.3 403.9,66.5 411.8,66.5C413.3,66.5 414.8,66.4 416.3,66.1C417.5,65.9 418.7,65.6 419.9,65.1L419.9,58.8C417.9,59.4 415.9,59.8 413.8,59.8C412.3,59.9 410.8,59.4 409.8,58.3" style="fill:rgb(2,61,89);fill-rule:nonzero;"/>
        <path d="M454.5,29C451.9,26.8 448.2,25.7 443.2,25.7C440.8,25.7 438.4,26 436,26.6C433.6,27.1 431.2,28 429,29.1L431.7,35.1C433.4,34.3 435.2,33.6 437,33C438.9,32.4 440.8,32.1 442.8,32.1C445.3,32.1 447.1,32.7 448.3,34C449.5,35.2 450.1,37.1 450.1,39.6L450.1,41.7L443.3,41.9C437.1,42.1 432.6,43.2 429.5,45.3C426.5,47.4 425,50.4 425,54.5C425,58.3 426.1,61.3 428.3,63.4C430.5,65.5 433.5,66.5 437.3,66.5C439.8,66.6 442.3,66.1 444.7,65.2C447,64 448.9,62.4 450.4,60.3L450.7,60.3L452.4,65.8L458.4,65.8L458.4,39.3C458.3,34.6 457,31.2 454.5,29M449.9,50.4C450.1,53.1 449.1,55.7 447.2,57.5C445.2,59.3 442.6,60.2 439.9,60C438.2,60.1 436.5,59.6 435.2,58.6C434.1,57.5 433.5,56.1 433.6,54.5C433.5,52.4 434.5,50.3 436.3,49.1C438.1,47.9 440.9,47.3 444.9,47.1L449.9,46.9L449.9,50.4Z" style="fill:rgb(2,61,89);fill-rule:nonzero;"/>
        <rect x="470" y="13.8" width="8.4" height="52" style="fill:rgb(2,61,89);"/>
        <path d="M280.8,89.5C280.8,91 280.8,92.6 280.9,94.2L280.8,94.2C280.1,93 279.1,92.1 277.9,91.4C276.7,90.8 275.4,90.6 274,90.6C271.5,90.4 269.1,91.5 267.5,93.4C266,95.3 265.3,98 265.3,101.6C265.3,105 266.1,107.6 267.5,109.3C269.2,111.1 271.6,112.1 274,112C276.7,112.1 279.3,110.8 280.7,108.5L280.8,108.5L281.3,111.6L282.5,111.6L282.5,82.1L280.6,82.1L280.8,89.5ZM280.8,101.5C280.8,104.6 280.3,106.8 279.2,108.2C278.1,109.5 276.4,110.2 274.1,110.2C269.6,110.2 267.3,107.3 267.3,101.5C267.3,98.5 267.9,96.2 269,94.6C270.2,93 272.1,92.1 274.1,92.2C276.5,92.2 278.2,92.9 279.3,94.3C280.4,95.7 280.9,98 280.9,101.2L280.9,101.5L280.8,101.5Z" style="fill-rule:nonzero;"/>
        <path d="M297.3,90.5C294.8,90.4 292.3,91.5 290.8,93.5C289.1,95.8 288.2,98.6 288.4,101.4C288.4,104.7 289.2,107.3 290.9,109.1C292.7,111 295.3,112 297.9,111.9C299,111.9 300.1,111.8 301.2,111.6C302.3,111.4 303.4,111.1 304.4,110.6L304.4,108.8C303.3,109.3 302.2,109.6 301,109.9C300,110.1 298.9,110.2 297.9,110.1C295.8,110.2 293.7,109.4 292.3,107.9C291,106.4 290.3,104.3 290.3,101.4L305.1,101.4L305.1,100C305.2,97.5 304.5,95.1 303,93.1C301.6,91.4 299.4,90.5 297.3,90.5M290.4,99.9C290.4,97.8 291.2,95.8 292.5,94.2C293.7,92.9 295.5,92.1 297.3,92.2C299,92.1 300.6,92.9 301.6,94.2C302.7,95.8 303.3,97.8 303.1,99.8L290.4,99.9Z" style="fill-rule:nonzero;"/>
        <path d="M328.6,83.7L317.5,111.5L319.6,111.5L323.5,101.7L334.7,101.7L338.6,111.5L340.8,111.5L329.9,83.7L328.6,83.7ZM334.1,100L324.2,100L328.1,90.1C328.5,89 328.9,87.9 329.2,86.8C329.6,88.2 330,89.3 330.3,90.1L334.1,100Z" style="fill-rule:nonzero;"/>
        <path d="M353.4,90.5C350,90.5 347.6,91.6 346.3,93.7L346.2,93.7L345.8,90.9L344.2,90.9L344.2,111.5L346.1,111.5L346.1,100.2C346.1,97.4 346.7,95.4 347.8,94.2C348.9,93 350.7,92.4 353.2,92.3C354.7,92.1 356.2,92.6 357.3,93.7C358.2,94.6 358.6,96.1 358.6,98.2L358.6,111.5L360.5,111.5L360.5,98.1C360.4,93.1 358.1,90.6 353.4,90.5" style="fill-rule:nonzero;"/>
        <path d="M369.9,109.1C369.3,108 369,106.8 369.1,105.6L369.1,92.6L375.1,92.6L375.1,90.9L369.1,90.9L369.1,86L368.1,86L367.2,90.7L364.2,91.5L364.2,92.6L367.2,92.6L367.2,105.9C367.1,107.5 367.5,109.2 368.5,110.5C369.6,111.5 371,112.1 372.5,112C373.6,112 374.6,111.9 375.6,111.5L375.6,110C374.6,110.2 373.5,110.3 372.5,110.3C371.4,110.4 370.4,109.9 369.9,109.1" style="fill-rule:nonzero;"/>
        <path d="M381,83.4C380.2,83.4 379.8,84 379.8,85.2C379.8,86.4 380.2,87 381,87C381.4,87 381.7,86.8 381.9,86.5C382.1,86.1 382.3,85.6 382.2,85.2C382.2,84.7 382.1,84.3 381.9,83.9C381.7,83.6 381.3,83.4 381,83.4" style="fill-rule:nonzero;"/>
        <rect x="380" y="90.9" width="1.9" height="20.6"/>
        <path d="M395.7,90.5C393.2,90.4 390.7,91.4 389,93.3C387.4,95.2 386.6,97.8 386.6,101.1C386.6,103 386.9,105 387.7,106.7C388.4,108.2 389.5,109.6 390.9,110.5C392.3,111.4 394,111.8 395.7,111.8C398.3,111.9 400.7,110.9 402.4,109C404,107.1 404.8,104.5 404.8,101.1C404.8,97.7 404,95.1 402.4,93.3C400.7,91.5 398.2,90.4 395.7,90.5M400.9,107.8C398.4,110.7 393.9,111 391,108.5C390.8,108.3 390.5,108.1 390.3,107.8C389,105.9 388.3,103.5 388.4,101.2C388.3,98.8 388.9,96.5 390.2,94.6C391.5,93 393.4,92.2 395.5,92.3C397.5,92.2 399.5,93.1 400.8,94.6C402.2,96.5 402.8,98.9 402.7,101.2C402.9,103.6 402.3,105.9 400.9,107.8" style="fill-rule:nonzero;"/>
        <path d="M424.7,93.8L424.6,93.8C423.1,91.6 420.6,90.3 417.9,90.5C415.4,90.4 413,91.4 411.5,93.3C410,95.2 409.2,97.9 409.2,101.4C409.2,104.9 410,107.4 411.4,109.2C413,111 415.3,112 417.7,111.9C420.5,112.1 423.2,110.7 424.7,108.3L424.8,108.3C424.7,109.9 424.7,111.5 424.7,113L424.7,120.8L426.6,120.8L426.6,90.9L425,90.9L424.7,93.8ZM424.8,101.2C424.8,104.4 424.3,106.8 423.2,108.1C422.1,109.5 420.3,110.2 417.8,110.2C415.9,110.3 414.1,109.5 412.9,108C411.8,106.5 411.2,104.3 411.2,101.5C411.2,98.7 411.8,96.2 412.9,94.6C414.1,93 416,92.1 418,92.3C420.4,92.3 422.1,93 423.1,94.4C424.1,95.8 424.7,98 424.7,101.1L424.8,101.2Z" style="fill-rule:nonzero;"/>
        <path d="M447.7,102.3C447.7,105.1 447.1,107.1 446,108.3C444.9,109.5 443,110.2 440.6,110.2C439.1,110.3 437.6,109.8 436.5,108.8C435.6,107.9 435.2,106.4 435.2,104.3L435.2,90.9L433.3,90.9L433.3,104.3C433.3,109.3 435.6,111.8 440.3,111.8C443.7,111.8 446.1,110.7 447.4,108.6L447.5,108.6L447.8,111.4L449.4,111.4L449.4,90.9L447.5,90.9L447.7,102.3Z" style="fill-rule:nonzero;"/>
        <path d="M457.3,83.4C456.5,83.4 456.1,84 456.1,85.2C456.1,86.4 456.5,87 457.3,87C457.7,87 458,86.8 458.2,86.5C458.4,86.1 458.6,85.6 458.5,85.2C458.5,84.7 458.4,84.3 458.2,83.9C458.1,83.6 457.7,83.4 457.3,83.4" style="fill-rule:nonzero;"/>
        <rect x="456.4" y="90.9" width="1.9" height="20.6"/>
        <path d="M476.3,92.3C474.9,91 473.1,90.4 471.2,90.5C468.9,90.5 466.6,91.1 464.5,92.1L465.2,93.7C467,92.7 469,92.2 471.1,92.1C472.5,92 474,92.5 475,93.6C475.9,94.9 476.3,96.5 476.2,98L476.2,99.4L472.3,99.5C469.1,99.6 466.7,100.1 465,101.3C463.4,102.3 462.4,104.1 462.5,106C462.4,107.6 463,109.2 464.2,110.3C465.5,111.4 467.2,112 468.9,111.9C470.2,111.9 471.6,111.6 472.8,111.1C474.1,110.4 475.2,109.5 476,108.3L476.2,108.3L476.7,111.6L478.1,111.6L478.1,97.8C478,95.3 477.5,93.5 476.3,92.3M476.2,103.1C476.5,106.7 473.8,109.9 470.2,110.2L469.1,110.2C467.9,110.3 466.7,109.9 465.8,109.1C465,108.3 464.6,107.2 464.6,106.1C464.5,104.7 465.2,103.3 466.4,102.5C467.6,101.7 469.7,101.3 472.6,101.2L476.2,101L476.2,103.1Z" style="fill-rule:nonzero;"/>
        <rect x="515.3" y="13.9" width="3.4" height="15.7" style="fill-rule:nonzero;"/>
        <path d="M523.4,13.9L526.8,13.9L534.4,24.1L534.4,13.9L537.8,13.9L537.8,29.6L534.4,29.6L526.8,19.4L526.8,29.6L523.4,29.6L523.4,13.9Z" style="fill-rule:nonzero;"/>
        <path d="M541.3,27.3L543.2,25C544.6,26.3 546.5,27 548.4,27.1C550.1,27.1 551,26.3 551,25.3C551,24.3 550.1,23.8 547.7,23.3C544.4,22.5 542,21.6 542,18.6C542,15.6 544.4,13.7 547.8,13.7C550.1,13.6 552.2,14.4 554,15.9L552.3,18.3C551,17.2 549.5,16.6 547.8,16.6C546.4,16.6 545.5,17.4 545.5,18.3C545.5,19.4 546.4,19.8 548.9,20.4C552.3,21.2 554.5,22.2 554.5,25.1C554.5,28 552.2,30.1 548.4,30.1C545.7,30 543.2,29 541.3,27.3Z" style="fill-rule:nonzero;"/>
        <path d="M562.3,17L557.4,17L557.4,14L570.6,14L570.6,17L565.7,17L565.7,29.6L562.3,29.6L562.3,17Z" style="fill-rule:nonzero;"/>
        <rect x="574.3" y="13.9" width="3.4" height="15.7" style="fill-rule:nonzero;"/>
        <path d="M586.3,17L581.4,17L581.4,14L594.5,14L594.5,17L589.6,17L589.6,29.6L586.2,29.6L586.2,17L586.3,17Z" style="fill-rule:nonzero;"/>
        <path d="M598.2,22.8L598.2,13.9L601.6,13.9L601.6,22.7C601.6,25.1 603.2,26.8 605.4,26.8C607.6,26.8 609.1,25.1 609.1,22.7L609.1,13.9L612.5,13.9L612.5,22.8C612.4,26.7 609,29.8 605.1,29.7C601.3,29.6 598.3,26.6 598.2,22.8Z" style="fill-rule:nonzero;"/>
        <path d="M616.3,21.8C616.4,17.3 620.1,13.7 624.7,13.7C627,13.7 629.2,14.7 630.8,16.3L628.3,18.5C627.4,17.4 626.1,16.8 624.6,16.7C621.8,16.8 619.6,19.2 619.8,22C619.9,24.6 622,26.7 624.6,26.8C626,26.8 627.4,26.1 628.3,25L630.8,27.2C629.2,28.9 627,29.8 624.7,29.8C620.1,29.9 616.4,26.3 616.3,21.8Z" style="fill-rule:nonzero;"/>
        <rect x="634.3" y="13.9" width="3.4" height="15.7" style="fill-rule:nonzero;"/>
        <path d="M641.5,21.8C641.7,17.2 645.5,13.6 650.2,13.7C654.6,13.9 658.1,17.4 658.3,21.8C658.1,26.4 654.3,30 649.6,29.9C645.2,29.7 641.7,26.2 641.5,21.8ZM654.8,21.8C654.7,19.1 652.4,17 649.7,17.1C647,17.2 644.9,19.5 645,22.2C645.1,24.8 647.3,26.9 649.9,26.9C652.7,26.8 654.8,24.5 654.8,21.8ZM651.4,9L654.4,9.6L651,12.6L648.7,12.6L651.4,9Z" style="fill-rule:nonzero;"/>
        <path d="M662.3,13.9L665.7,13.9L673.3,24.1L673.3,13.9L676.7,13.9L676.7,29.6L673.3,29.6L665.7,19.4L665.7,29.6L662.3,29.6L662.3,13.9Z" style="fill-rule:nonzero;"/>
        <path d="M515.3,50.3L515.3,41.4L518.7,41.4L518.7,50.2C518.7,52.6 520.3,54.3 522.5,54.3C524.7,54.3 526.2,52.6 526.2,50.2L526.2,41.4L529.6,41.4L529.6,50.3C529.5,54.2 526.1,57.3 522.2,57.2C518.4,57.1 515.4,54.1 515.3,50.3Z" style="fill-rule:nonzero;"/>
        <path d="M534.1,41.4L537.5,41.4L545.1,51.6L545.1,41.4L548.5,41.4L548.5,57.1L545.1,57.1L537.5,47L537.5,57.1L534.1,57.1L534.1,41.4Z" style="fill-rule:nonzero;"/>
        <rect x="553.1" y="41.4" width="3.4" height="15.7" style="fill-rule:nonzero;"/>
        <path d="M576.4,41.4L570,57.1L566.2,57.1L559.8,41.4L563.6,41.4L568.1,52.5L572.6,41.4L576.4,41.4Z" style="fill-rule:nonzero;"/>
        <path d="M583,44.5L583,47.6L590.9,47.6L590.9,50.6L583,50.6L583,54.1L591.7,54.1L591.7,57.1L579.6,57.1L579.6,41.4L591.7,41.4L591.7,44.4L583,44.5Z" style="fill-rule:nonzero;"/>
        <path d="M605.1,57.1L601.5,52L599,52L599,57.1L595.6,57.1L595.6,41.4L602.7,41.4C606.1,41.4 608.6,43.6 608.6,46.7C608.6,48.9 607.2,50.9 605,51.6L608.9,57.1L605.1,57.1ZM599,48.9L602.3,48.9C604,48.9 605.1,48 605.1,46.7C605.1,45.4 604,44.5 602.3,44.5L599,44.5L599,48.9Z" style="fill-rule:nonzero;"/>
        <path d="M611.6,54.8L613.5,52.5C614.9,53.8 616.8,54.5 618.7,54.6C620.4,54.6 621.3,53.8 621.3,52.8C621.3,51.8 620.4,51.3 618,50.8C614.7,50 612.3,49.1 612.3,46C612.3,42.9 614.7,41.1 618.1,41.1C620.4,41 622.6,41.8 624.3,43.3L622.5,45.7C621.2,44.6 619.6,44 618,44C616.6,44 615.7,44.8 615.7,45.7C615.7,46.9 616.6,47.2 619.1,47.8C622.5,48.6 624.7,49.6 624.7,52.5C624.7,55.4 622.4,57.5 618.6,57.5C616,57.5 613.5,56.5 611.6,54.8Z" style="fill-rule:nonzero;"/>
        <rect x="628.5" y="41.4" width="3.4" height="15.7" style="fill-rule:nonzero;"/>
        <path d="M640.5,44.5L635.6,44.5L635.6,41.5L648.8,41.5L648.8,44.5L643.9,44.5L643.9,57.2L640.5,57.2L640.5,44.5Z" style="fill-rule:nonzero;"/>
        <path d="M661.8,54.7L654.8,54.7L653.8,57.2L650,57.2L656.4,41.5L660.2,41.5L666.6,57.2L662.8,57.2L661.8,54.7ZM660.6,51.8L658.2,46L655.9,51.8L660.6,51.8Z" style="fill-rule:nonzero;"/>
        <path d="M679.3,57.1L675.7,52L673.2,52L673.2,57.1L669.8,57.1L669.8,41.4L676.9,41.4C680.3,41.4 682.8,43.6 682.8,46.7C682.8,48.9 681.4,50.9 679.2,51.6L683.1,57.1L679.3,57.1ZM673.2,48.9L676.5,48.9C678.2,48.9 679.3,48 679.3,46.7C679.3,45.4 678.1,44.5 676.5,44.5L673.2,44.5L673.2,48.9Z" style="fill-rule:nonzero;"/>
        <rect x="686.8" y="41.4" width="3.4" height="15.7" style="fill-rule:nonzero;"/>
        <path d="M705.3,54.7L698.3,54.7L697.3,57.2L693.5,57.2L699.9,41.5L703.7,41.5L710.1,57.2L706.3,57.2L705.3,54.7ZM704.1,51.8L701.8,46L699.5,51.8L704.1,51.8Z" style="fill-rule:nonzero;"/>
        <path d="M515.4,68.9L521,68.9C526.3,68.9 530.1,72.2 530.1,76.8C530.1,81.4 526.3,84.7 521,84.7L515.4,84.7L515.4,68.9ZM521.5,81.6C524.1,81.8 526.4,79.8 526.6,77.2L526.6,76.8C526.6,74 524.5,72 521.5,72L518.8,72L518.8,81.6L521.5,81.6Z" style="fill-rule:nonzero;"/>
        <rect x="534.1" y="68.9" width="3.4" height="15.7" style="fill-rule:nonzero;"/>
        <path d="M549.3,75.8L556.3,75.8L556.3,82.3C554.6,84 552.3,84.9 549.9,84.9C545.4,85.1 541.6,81.5 541.5,77C541.3,72.5 544.9,68.7 549.4,68.6L550,68.6C552.4,68.6 554.7,69.5 556.4,71.2L553.9,73.4C552.9,72.3 551.5,71.7 550,71.6C547.2,71.7 545,74.1 545.2,76.9C545.3,79.5 547.4,81.6 550,81.7C551.1,81.7 552.2,81.3 553.1,80.7L553.1,78.3L549.4,78.3L549.3,75.8Z" style="fill-rule:nonzero;"/>
        <rect x="560.5" y="68.9" width="3.4" height="15.7" style="fill-rule:nonzero;"/>
        <path d="M572.5,71.9L567.6,71.9L567.6,68.9L580.8,68.9L580.8,71.9L575.9,71.9L575.9,84.6L572.5,84.6L572.5,71.9Z" style="fill-rule:nonzero;"/>
        <path d="M593.8,82.2L586.8,82.2L585.8,84.7L582,84.7L588.4,69L592.2,69L598.6,84.7L594.8,84.7L593.8,82.2ZM592.6,79.3L590.2,73.5L587.9,79.3L592.6,79.3Z" style="fill-rule:nonzero;"/>
        <path d="M612.9,81.6L612.9,84.6L601.7,84.6L601.7,68.9L605.1,68.9L605.1,81.6L612.9,81.6Z" style="fill-rule:nonzero;"/>
        <path d="M515.4,96.4L521,96.4C526.3,96.4 530.1,99.6 530.1,104.2C530.1,108.8 526.3,112.1 521,112.1L515.4,112.1L515.4,96.4ZM521.5,109.1C524.1,109.3 526.4,107.3 526.6,104.7L526.6,104.3C526.6,101.5 524.5,99.5 521.5,99.5L518.8,99.5L518.8,109.1L521.5,109.1Z" style="fill-rule:nonzero;"/>
        <path d="M537.5,99.4L537.5,102.5L545.4,102.5L545.4,105.5L537.5,105.5L537.5,109L546.3,109L546.3,112L534.2,112L534.2,96.4L546.3,96.4L546.3,99.4L537.5,99.4Z" style="fill-rule:nonzero;"/>
        <path d="M568.5,109.7L561.5,109.7L560.5,112.2L556.7,112.2L563.1,96.5L566.9,96.5L573.3,112.2L569.5,112.2L568.5,109.7ZM567.3,106.8L565,101L562.7,106.8L567.3,106.8Z" style="fill-rule:nonzero;"/>
        <path d="M576.6,96.4L580.1,96.4L587.7,106.6L587.7,96.4L591.1,96.4L591.1,112.1L587.7,112.1L580,102L580,112.2L576.6,112.2L576.6,96.4Z" style="fill-rule:nonzero;"/>
        <path d="M599.7,99.4L594.8,99.4L594.8,96.4L608,96.4L608,99.4L603.1,99.4L603.1,112.1L599.7,112.1L599.7,99.4Z" style="fill-rule:nonzero;"/>
        <rect x="611.7" y="96.4" width="3.4" height="15.7" style="fill-rule:nonzero;"/>
        <path d="M619,104.3C618.9,99.7 622.5,95.9 627.2,95.7C631.8,95.6 635.6,99.2 635.8,103.9C635.9,108.5 632.3,112.3 627.6,112.5L627.4,112.5C622.8,112.4 619.1,108.8 619,104.3ZM632.2,104.3C632.1,101.6 629.8,99.5 627.1,99.6C624.4,99.7 622.3,102 622.4,104.7C622.5,107.3 624.7,109.4 627.3,109.4C630.1,109.3 632.3,107 632.2,104.3Z" style="fill-rule:nonzero;"/>
        <path d="M654.2,108.9L655.7,110.2L654,112.2L652.4,110.8C648.8,113.4 643.7,112.6 641.1,109C638.5,105.4 639.3,100.3 642.9,97.7C646.5,95.1 651.6,95.9 654.2,99.5C655.2,100.9 655.7,102.6 655.7,104.3C655.7,105.9 655.1,107.5 654.2,108.9ZM649.8,108.6L648,107L649.7,105L651.6,106.6C652,105.9 652.2,105.1 652.2,104.2C652.1,101.5 649.8,99.4 647.1,99.5C644.4,99.6 642.3,101.9 642.4,104.6C642.5,107.2 644.7,109.3 647.3,109.3C648.2,109.4 649.1,109.1 649.8,108.6Z" style="fill-rule:nonzero;"/>
        <path d="M659.5,105.3L659.5,96.4L662.9,96.4L662.9,105.2C662.9,107.6 664.5,109.4 666.7,109.4C668.9,109.4 670.4,107.7 670.4,105.2L670.4,96.4L673.8,96.4L673.8,105.3C673.7,109.2 670.3,112.3 666.4,112.2C662.7,112.1 659.7,109.1 659.5,105.3Z" style="fill-rule:nonzero;"/>
        <rect x="678.3" y="96.4" width="3.4" height="15.7" style="fill-rule:nonzero;"/>
        <path d="M696.7,109.7L689.7,109.7L688.7,112.2L684.9,112.2L691.3,96.5L695.1,96.5L701.5,112.2L697.7,112.2L696.7,109.7ZM695.6,106.8L693.3,101L691,106.8L695.6,106.8Z" style="fill-rule:nonzero;"/>
    </g>
    <g transform="matrix(1,0,0,1.13793,-0.958056,-19.4711)">
        <path d="M707.524,99.49L144.187,99.49L144.187,120.328C144.187,124.161 147.729,127.274 152.091,127.274L699.62,127.274C703.983,127.274 707.524,124.161 707.524,120.328L707.524,99.49Z" style="fill:rgb(91,91,91);"/>
    </g>
    <g transform="matrix(1,0,0,1,119.757,43.5915)">
        <g transform="matrix(28,0,0,28,452.025,76.4967)">
        </g>
        <text x="158.079px" y="76.497px" style="font-family:'MalgunGothicBold', 'Malgun Gothic', sans-serif;font-weight:700;font-size:28px;fill:white;">ESP<tspan x="204.372px 223.622px 241.505px " y="76.497px 76.497px 76.497px ">ACI</tspan>O DE PRUEBAS</text>
    </g>
</svg>
