<svg xmlns="http://www.w3.org/2000/svg" viewBox="0 0 113.03 58.37"><defs><style>.cls-1{fill:#d92432;}.cls-2{fill:#003f59;}</style></defs><g id="Capa_2" data-name="Capa 2"><g id="Diseño"><rect class="cls-1" y="0.1" width="9.55" height="58.15"/><path class="cls-1" d="M37.64,58.37A22.59,22.59,0,0,1,15.07,35.81V0h9.3V35.81a13.27,13.27,0,0,0,26.54,0V.15h9.3V35.81A22.59,22.59,0,0,1,37.64,58.37Z"/><path class="cls-2" d="M83.71.09h-18V58.24H82q15,0,23-7.61t8-22q0-13.56-7.72-21T83.71.09M82,50.25H75.24V8h8.23Q103,8,103,28.93q0,21.32-21,21.32"/></g></g></svg>